HIERARCHY
ROOT Hips
{
  OFFSET 0 89.5177 0.535
  CHANNELS 6 Xposition Yposition Zposition Zrotation Xrotation Yrotation
  JOINT Spine
  {
    OFFSET 12.0259 -0.162855 1.69034e-005
    CHANNELS 3 Zrotation Xrotation Yrotation
    JOINT Spine1
    {
      OFFSET 15.3169 -0.0121922 0
      CHANNELS 3 Zrotation Xrotation Yrotation
      JOINT Spine2
      {
        OFFSET 15.3176 -0.0121908 0
        CHANNELS 3 Zrotation Xrotation Yrotation
        JOINT Neck
        {
          OFFSET 19.9142 1.56338 0
          CHANNELS 3 Zrotation Xrotation Yrotation
          JOINT Head
          {
            OFFSET 6.92651 0 0
            CHANNELS 3 Zrotation Xrotation Yrotation
            End Site
            {
              OFFSET 20.7666 0 0
            }
          }
          JOINT LeftShoulder
          {
            OFFSET -6.20654 0.708824 7.28219
            CHANNELS 3 Zrotation Xrotation Yrotation
            JOINT LeftArm
            {
              OFFSET 14.108 0 -1.52588e-005
              CHANNELS 3 Zrotation Xrotation Yrotation
              JOINT LeftForeArm
              {
                OFFSET 28.5802 0 0
                CHANNELS 3 Zrotation Xrotation Yrotation
                JOINT LeftHand
                {
                  OFFSET 27.092 0 0
                  CHANNELS 3 Zrotation Xrotation Yrotation
                  End Site
                  {
                    OFFSET 9.55928 -0.186424 0.145352
                  }
                }
              }
            }
          }
          JOINT RightShoulder
          {
            OFFSET -6.20654 0.708866 -7.28218
            CHANNELS 3 Zrotation Xrotation Yrotation
            JOINT RightArm
            {
              OFFSET 14.108 0 1.52588e-005
              CHANNELS 3 Zrotation Xrotation Yrotation
              JOINT RightForeArm
              {
                OFFSET 28.5802 0 0
                CHANNELS 3 Zrotation Xrotation Yrotation
                JOINT RightHand
                {
                  OFFSET 27.092 0 0
                  CHANNELS 3 Zrotation Xrotation Yrotation
                  End Site
                  {
                    OFFSET 9.55929 -0.186417 -0.145354
                  }
                }
              }
            }
          }
        }
      }
    }
  }
  JOINT LeftUpLeg
  {
    OFFSET 0.005 -0.535 8.837
    CHANNELS 3 Zrotation Xrotation Yrotation
    JOINT LeftLeg
    {
      OFFSET 39.9035 0 0
      CHANNELS 3 Zrotation Xrotation Yrotation
      JOINT LeftFoot
      {
        OFFSET 39.6689 0 0
        CHANNELS 3 Zrotation Xrotation Yrotation
        JOINT LeftToe
        {
          OFFSET 10.1624 13.6296 0
          CHANNELS 3 Zrotation Xrotation Yrotation
          End Site
          {
            OFFSET 8.38147 0 0
          }
        }
      }
    }
  }
  JOINT RightUpLeg
  {
    OFFSET 0.005 -0.535 -8.837
    CHANNELS 3 Zrotation Xrotation Yrotation
    JOINT RightLeg
    {
      OFFSET 39.9035 0 0
      CHANNELS 3 Zrotation Xrotation Yrotation
      JOINT RightFoot
      {
        OFFSET 39.6689 0 0
        CHANNELS 3 Zrotation Xrotation Yrotation
        JOINT RightToe
        {
          OFFSET 10.1624 13.6296 0
          CHANNELS 3 Zrotation Xrotation Yrotation
          End Site
          {
            OFFSET 8.38147 0 0
          }
        }
      }
    }
  }
}
MOTION
Frames:	17
Frame Time:	0.0333333
204.53 88.9467 -139.957 38.866 -82.2801 -46.4084 2.12934 -1.37981 -1.02991 4.23543 -2.79626 -2.00856 4.23543 -2.79626 -2.00856 -8.30828e-012 -9.0191e-006 -5.27751e-005 12.9434 -8.70112 8.72862 -178.72 -13.2819 -84.446 -0.512605 -48.3147 15.0056 -14.7653 -6.36111e-015 -7.95139e-016 -58.7557 -32.0428 -47.1883 178.776 12.3759 95.6934 59.3099 71.5898 -76.5395 -7.31479 -1.59028e-015 1.19271e-015 -50.8149 26.4739 42.3336 6.14838 4.55332 177.902 -10.6064 1.59028e-015 -0 10.6288 6.08201 -9.77238 90 -2.87617e-015 -0 3.17812 1.70657 173.527 -18.1618 -1.59028e-015 -7.95139e-016 16.5332 -5.22167 2.65223 90 0 4.77083e-015 
204.513 88.94 -140.016 38.4528 -82.3178 -46.8213 2.13322 -1.36719 -1.03866 4.24316 -2.77141 -2.02641 4.24316 -2.77141 -2.02642 -8.30987e-012 -9.0191e-006 -5.27751e-005 12.9384 -8.66785 8.65946 -178.715 -13.3048 -84.4308 -0.51216 -48.3018 15.0263 -14.7543 0 -0 -58.6846 -32.0264 -47.0983 178.772 12.3865 95.7053 59.3496 71.589 -76.6473 -7.3661 1.59028e-015 3.97569e-016 -50.838 26.447 42.3201 6.18111 4.66862 177.891 -10.6617 1.59028e-015 7.95139e-016 10.7014 6.08337 -9.79356 90 2.03133e-015 -0 3.23037 1.78243 173.521 -18.1557 7.95139e-016 -5.96354e-016 16.5668 -5.21511 2.63872 90 -4.96962e-017 -0 
204.494 88.9349 -140.065 38.4909 -82.3187 -46.7786 2.1336 -1.36588 -1.04505 4.24526 -2.76904 -2.03922 4.24526 -2.76904 -2.03923 -8.30669e-012 -9.0191e-006 -5.27751e-005 12.9453 -8.61965 8.5476 -178.708 -13.3308 -84.4149 -0.519088 -48.3205 15.078 -14.7434 9.54166e-015 -0 -58.7338 -32.0377 -47.1662 178.767 12.3853 95.7325 59.3025 71.609 -76.6332 -7.33328 1.59028e-015 -0 -50.8505 26.4668 42.364 6.28226 4.55663 177.868 -10.5289 1.59028e-015 7.95139e-016 10.6789 6.04677 -9.70253 90 -1.2424e-015 -0 3.26729 1.7705 173.506 -18.1442 -1.59028e-015 -7.95139e-016 16.5959 -5.20739 2.63694 90 4.96962e-017 -0 
204.481 88.934 -140.113 38.8585 -82.3083 -46.3968 2.13381 -1.36636 -1.05484 4.24462 -2.76807 -2.05894 4.24462 -2.76807 -2.05895 -8.30748e-012 -9.0191e-006 -5.27751e-005 12.9876 -8.62964 8.54803 -178.709 -13.3327 -84.417 -0.566493 -48.312 15.0972 -14.7361 3.18055e-015 3.18055e-015 -58.7656 -32.0331 -47.2001 178.762 12.4049 95.7461 59.198 71.5758 -76.5215 -7.36041 1.59028e-015 3.97569e-016 -50.7942 26.4506 42.2946 6.34975 4.47617 177.841 -10.4118 -1.59028e-015 -7.95139e-016 10.6558 6.03742 -9.67466 90 -2.4786e-015 -7.95139e-016 3.32548 1.77628 173.488 -18.0659 2.38542e-015 3.97569e-016 16.5508 -5.17269 2.63729 90 1.73937e-016 -3.18055e-015 
204.47 88.9332 -140.163 39.1119 -82.2894 -46.1398 2.13396 -1.3675 -1.06357 4.24382 -2.76997 -2.07637 4.24382 -2.76997 -2.07638 -8.30748e-012 -9.0191e-006 -5.27751e-005 13.0261 -8.63969 8.6009 -178.703 -13.332 -84.3915 -0.634015 -48.2314 15.0359 -14.8092 9.54166e-015 7.95139e-016 -58.7288 -32.0971 -47.2002 178.759 12.4163 95.7543 59.3289 71.569 -76.6465 -7.38753 0 -7.95139e-016 -50.8936 26.452 42.3732 6.33222 4.53175 177.846 -10.4883 3.18055e-015 1.19271e-015 10.7192 6.07533 -9.76223 90 -1.62755e-015 7.95139e-016 3.36781 1.73113 173.478 -18.0365 -7.95139e-016 5.96354e-016 16.5668 -5.16747 2.66122 90 -1.2424e-016 3.18055e-015 
204.466 88.9323 -140.198 39.3514 -82.2848 -45.8829 2.134 -1.36887 -1.07525 4.24237 -2.779 -2.09961 4.24237 -2.779 -2.09962 -8.30669e-012 -9.0191e-006 -5.27751e-005 13.0359 -8.66358 8.64367 -178.706 -13.3332 -84.4034 -0.665192 -48.21 14.9581 -14.7682 3.18055e-015 -0 -58.7102 -32.0395 -47.1305 178.754 12.4281 95.7693 59.2931 71.5549 -76.6157 -7.34525 0 -0 -50.8038 26.4951 42.3426 6.32921 4.55103 177.837 -10.5012 0 -3.97569e-016 10.7448 6.09697 -9.82959 90 -3.23646e-015 -0 3.35954 1.67583 173.456 -18.0601 0 -1.98785e-016 16.6044 -5.1799 2.68992 90 1.98785e-016 -0 
204.471 88.9314 -140.226 39.3909 -82.3085 -45.8468 2.13413 -1.37002 -1.08087 4.24189 -2.77789 -2.11079 4.24189 -2.77789 -2.1108 -8.3051e-012 -9.0191e-006 -5.27751e-005 12.9612 -8.6915 8.67311 -178.707 -13.3414 -84.4112 -0.691343 -48.1604 14.8803 -14.7408 -3.18055e-015 -1.59028e-015 -58.7585 -31.9949 -47.143 178.758 12.4179 95.7587 59.2276 71.5355 -76.5251 -7.365 0 3.97569e-016 -50.8627 26.5232 42.4273 6.37637 4.55723 177.835 -10.4132 1.59028e-015 3.97569e-016 10.7249 6.08895 -9.79426 90 9.13167e-016 -0 3.36098 1.6842 173.465 -18.0445 0 -3.97569e-016 16.5952 -5.172 2.69322 90 -7.45443e-017 -4.77083e-015 
204.487 88.9303 -140.229 39.2066 -82.3758 -46.0463 2.13439 -1.37051 -1.0807 4.24169 -2.77967 -2.1156 4.24169 -2.77967 -2.11561 -8.30669e-012 -9.0191e-006 -5.27751e-005 12.8744 -8.6677 8.6621 -178.706 -13.3768 -84.4215 -0.598631 -48.1229 14.8699 -14.8061 9.54166e-015 -2.38542e-015 -58.7488 -32.0319 -47.1621 178.759 12.3982 95.7627 59.5986 71.5472 -76.8999 -7.36381 -1.59028e-015 1.19271e-015 -50.9161 26.4037 42.3664 6.30262 4.67456 177.865 -10.5053 -1.59028e-015 -0 10.7744 6.11409 -9.86031 90 -1.2424e-015 -0 3.29492 1.72404 173.483 -18.0957 -7.95139e-016 -3.97569e-016 16.6377 -5.20004 2.71111 90 9.93923e-017 -1.59028e-015 
204.507 88.929 -140.238 38.7002 -82.4961 -46.6024 2.13481 -1.3615 -1.08026 4.24308 -2.76151 -2.10654 4.24308 -2.76151 -2.10654 -8.30669e-012 -9.0191e-006 -5.27751e-005 12.8226 -8.63067 8.63671 -178.692 -13.4311 -84.3844 -0.643765 -48.208 14.7499 -14.6921 6.36111e-015 -0 -58.7664 -31.9283 -47.107 178.757 12.4152 95.7649 59.5672 71.5221 -76.9353 -7.35944 1.59028e-015 3.97569e-016 -50.7862 26.4711 42.325 6.3033 4.76597 177.908 -10.4594 0 -3.97569e-016 10.7766 6.09465 -9.7996 90 -2.98177e-016 -0 3.22781 1.82066 173.539 -18.112 7.95139e-016 1.19271e-015 16.6309 -5.22745 2.74414 90 -2.48481e-017 -0 
204.523 88.9279 -140.247 38.2681 -82.5915 -47.0739 2.13523 -1.35154 -1.07969 4.24419 -2.74168 -2.1086 4.24419 -2.74168 -2.10861 -8.30748e-012 -9.0191e-006 -5.27751e-005 12.7619 -8.64899 8.60729 -178.692 -13.421 -84.3802 -0.601029 -48.3345 14.7129 -14.6282 -3.18055e-015 -3.18055e-015 -58.7126 -31.9575 -47.0719 178.768 12.4092 95.7155 59.3537 71.4979 -76.7023 -7.32557 0 3.97569e-016 -50.9136 26.4293 42.3576 6.33763 4.81311 177.937 -10.361 -1.59028e-015 -0 10.7497 6.05874 -9.70946 90 3.60297e-016 -0 3.17109 1.87307 173.582 -18.1423 2.38542e-015 1.98785e-016 16.6783 -5.26412 2.75981 90 2.48481e-017 -1.59028e-015 
204.538 88.9269 -140.253 38.0146 -82.6576 -47.3549 2.1355 -1.34937 -1.07912 4.2451 -2.7373 -2.10589 4.2451 -2.73731 -2.1059 -8.30828e-012 -9.0191e-006 -5.27751e-005 12.7221 -8.62892 8.52969 -178.695 -13.4171 -84.3909 -0.572346 -48.3701 14.7304 -14.6164 0 -4.77083e-015 -58.6738 -31.9689 -47.0499 178.757 12.4507 95.7481 59.9964 71.5754 -77.361 -7.20081 -1.59028e-015 -3.97569e-016 -50.8438 26.417 42.3357 6.31762 4.87555 177.964 -10.3608 0 7.95139e-016 10.7586 6.04954 -9.68599 90 2.31708e-015 -2.38542e-015 3.12287 1.91047 173.616 -18.1646 -7.95139e-016 5.96354e-016 16.6992 -5.28665 2.76794 90 -4.96962e-017 1.59028e-015 
204.556 88.9261 -140.262 37.9672 -82.6871 -47.412 2.13554 -1.35902 -1.07869 4.24527 -2.75657 -2.10323 4.24527 -2.75657 -2.10324 -8.30907e-012 -9.0191e-006 -5.27751e-005 12.7148 -8.51008 8.40676 -178.704 -13.4282 -84.434 -0.504647 -48.3906 14.8484 -14.6781 6.36111e-015 -2.38542e-015 -58.7111 -31.9509 -47.0568 178.739 12.4938 95.8107 60.1336 71.6116 -77.5662 -7.14595 -1.59028e-015 -3.97569e-016 -50.6927 26.5659 42.3529 6.33566 4.86988 177.979 -10.3061 0 3.97569e-016 10.7431 6.03825 -9.66263 90 2.31087e-015 -1.59028e-015 3.0971 1.9221 173.637 -18.1829 0 1.98785e-016 16.7253 -5.29451 2.76085 90 1.98785e-016 -3.18055e-015 
204.564 88.9252 -140.286 38.2712 -82.6868 -47.1067 2.13551 -1.37296 -1.07852 4.24499 -2.78442 -2.10595 4.24499 -2.78442 -2.10596 -8.30589e-012 -9.0191e-006 -5.27751e-005 12.6997 -8.34542 8.30956 -178.703 -13.4638 -84.4473 -0.563738 -48.4804 14.9386 -14.7441 6.36111e-015 -0 -58.765 -31.9479 -47.1281 178.715 12.547 95.8933 60.3821 71.6843 -77.8677 -7.13579 0 -3.97569e-016 -50.7579 26.4478 42.2711 6.29086 4.87724 177.997 -10.3665 0 -3.97569e-016 10.7852 6.06884 -9.7384 90 1.24862e-015 -0 3.09275 1.88102 173.642 -18.1784 0 -0 16.749 -5.29632 2.75941 90 7.45443e-017 -0 
204.571 88.9245 -140.297 38.8112 -82.6573 -46.549 2.13535 -1.38772 -1.084 4.24437 -2.8141 -2.11641 4.24437 -2.8141 -2.11641 -8.30828e-012 -9.0191e-006 -5.27751e-005 12.676 -8.15293 8.29574 -178.71 -13.4583 -84.4727 -0.660083 -48.4275 15.0144 -14.8218 -6.36111e-015 -1.59028e-015 -58.7282 -31.9245 -47.0691 178.689 12.6049 95.9868 60.2364 71.7073 -77.7504 -7.2188 1.59028e-015 3.97569e-016 -50.8259 26.2813 42.1783 6.25721 4.85813 177.987 -10.3809 -1.59028e-015 7.95139e-016 10.7869 6.07294 -9.76461 90 -6.83322e-017 -0 3.10622 1.84698 173.634 -18.139 -7.95139e-016 -5.96354e-016 16.7176 -5.26388 2.72496 90 0 -4.77083e-015 
204.578 88.924 -140.317 39.1169 -82.6228 -46.2418 2.13527 -1.39805 -1.09084 4.24403 -2.83505 -2.12963 4.24403 -2.83506 -2.12964 -8.30828e-012 -9.0191e-006 -5.27751e-005 12.6292 -7.99242 8.34091 -178.725 -13.4143 -84.5204 -0.718456 -48.3391 15.0764 -14.8951 3.18055e-015 -2.38542e-015 -58.7167 -31.888 -47.0238 178.67 12.6786 96.0371 60.2848 71.7616 -77.8533 -7.3192 1.59028e-015 -3.97569e-016 -50.821 26.2326 42.1238 6.244 4.80341 178.005 -10.4049 -1.59028e-015 3.97569e-016 10.8077 6.09123 -9.79504 90 -2.78299e-015 7.95139e-016 3.17154 1.87534 173.648 -18.0535 0 -5.96354e-016 16.6534 -5.21275 2.70081 90 -9.93923e-017 -3.18055e-015 
204.578 88.9235 -140.33 39.3719 -82.6005 -45.977 2.13503 -1.4081 -1.10329 4.24322 -2.8556 -2.15418 4.24322 -2.8556 -2.15419 -8.30669e-012 -9.0191e-006 -5.27751e-005 12.5863 -7.93102 8.44956 -178.722 -13.4137 -84.5054 -0.855187 -48.3196 15.0557 -14.9537 -3.18055e-015 -1.59028e-015 -58.7077 -31.8761 -46.9921 178.658 12.6978 96.0832 60.3719 71.7566 -77.9597 -7.43211 1.59028e-015 3.97569e-016 -51.034 26.2012 42.2688 6.29058 4.73047 177.992 -10.3239 0 3.97569e-016 10.7761 6.07571 -9.77008 90 -9.62863e-016 -0 3.18605 1.84322 173.639 -18.0488 0 -1.19271e-015 16.6703 -5.20148 2.68096 90 -2.73329e-016 1.59028e-015 
204.578 88.9231 -140.342 39.2677 -82.6013 -46.0886 2.13669 -1.40858 -1.1084 4.24394 -2.85676 -2.16439 4.24394 -2.85676 -2.1644 -8.30669e-012 -9.0191e-006 -5.27751e-005 12.563 -7.9814 8.53511 -178.709 -13.4386 -84.4617 -0.980458 -48.3813 15.0572 -14.981 -9.54166e-015 7.95139e-016 -58.742 -31.8579 -47.0353 178.659 12.6855 96.0863 60.2765 71.799 -77.8674 -7.45683 3.18055e-015 -7.95139e-016 -50.9462 26.3327 42.2927 6.31276 4.74163 178.001 -10.3132 1.59028e-015 -3.97569e-016 10.781 6.07583 -9.76252 90 -3.15571e-015 -7.95139e-016 3.18222 1.81871 173.643 -18.0728 7.95139e-016 -1.98785e-016 16.684 -5.22932 2.72461 90 4.96962e-017 -1.59028e-015 
